<svg width="42" height="42" viewBox="0 0 42 42" fill="none" xmlns="http://www.w3.org/2000/svg">
<path d="M1.09764 41.8809C1.2433 41.9238 1.39804 41.9001 1.52834 41.8149C1.65863 41.7298 1.75397 41.5901 1.7937 41.426C2.96516 36.4883 7.72609 35.2086 10.5717 34.4428C11.2848 34.2514 11.8478 34.0998 12.2141 33.9212C15.4555 32.3318 16.5121 29.7749 16.8283 27.9093C16.8471 27.7983 16.8396 27.6837 16.8067 27.577C16.7737 27.4703 16.7164 27.3753 16.6406 27.3016C14.9528 25.6557 13.5288 23.1849 12.6303 20.3428C12.605 20.2612 12.5651 20.1865 12.5132 20.123C11.3247 18.6634 10.6422 17.1203 10.6422 15.8907C10.6422 15.1725 10.8822 14.6906 11.4225 14.327C11.5034 14.2724 11.571 14.1959 11.6193 14.1044C11.6675 14.0128 11.6948 13.9092 11.6988 13.8028C11.9502 7.25772 16.0765 2.10543 21.1377 2.07202L21.2594 2.08102C26.3456 2.16068 30.4457 7.42347 30.5924 14.0611C30.5945 14.1518 30.6136 14.241 30.6485 14.3227C30.6834 14.4045 30.7333 14.4769 30.7949 14.5352C31.1509 14.8757 31.3169 15.3074 31.3169 15.8933C31.3169 16.9224 30.8313 18.188 29.951 19.4549C29.909 19.5159 29.8767 19.5845 29.8554 19.6579C28.9455 22.9163 27.3123 25.7931 25.3766 27.5534C25.2964 27.6266 25.2352 27.7229 25.1996 27.8321C25.1639 27.9414 25.1551 28.0595 25.1741 28.174C25.4903 30.0383 26.5469 32.5939 29.7883 34.1858C30.1716 34.3734 30.7664 34.5199 31.5205 34.7036C34.3377 35.3923 39.052 36.5474 40.2087 41.426C40.2281 41.5075 40.2615 41.5839 40.3071 41.6508C40.3526 41.7177 40.4094 41.7738 40.4741 41.8159C40.5389 41.8581 40.6103 41.8854 40.6844 41.8963C40.7585 41.9072 40.8337 41.9015 40.9059 41.8796C40.978 41.8577 41.0456 41.8199 41.1048 41.7684C41.1641 41.717 41.2137 41.6529 41.251 41.5797C41.2883 41.5066 41.3125 41.4259 41.3221 41.3422C41.3318 41.2585 41.3268 41.1735 41.3074 41.092C39.971 35.4553 34.63 34.1486 31.7616 33.4471C31.0963 33.2839 30.5219 33.1438 30.2421 33.0051C28.1267 31.9669 26.8233 30.3852 26.3626 28.296C28.3268 26.3906 29.9703 23.4508 30.9097 20.1539C31.9072 18.6891 32.4554 17.1807 32.4554 15.892C32.4554 15.0324 32.2097 14.3155 31.7229 13.7553C31.4523 6.5549 26.904 0.884811 21.2594 0.793585L21.0899 0.791016C15.5476 0.824422 10.98 6.34547 10.5808 13.4212C9.86885 14.0122 9.50717 14.841 9.50717 15.8933C9.50717 17.4133 10.2681 19.2313 11.5999 20.8991C12.52 23.7553 13.9462 26.2647 15.6443 28.0211C15.1859 30.118 13.8814 31.7048 11.7614 32.7442C11.4873 32.8791 10.9414 33.0269 10.309 33.1965C7.41901 33.9726 2.04164 35.418 0.69502 41.0945C0.65613 41.2591 0.676698 41.4344 0.752201 41.5819C0.827704 41.7294 0.951959 41.8369 1.09764 41.8809Z" fill="#FE7A3C"/>
</svg>
