<svg width="30" height="31" viewBox="0 0 30 31" fill="none" xmlns="http://www.w3.org/2000/svg">
    <path d="M1 26.0144V9.38593C1 7.29691 1.82969 5.29345 3.30653 3.81629C4.78338 2.33914 6.78642 1.50928 8.875 1.50928H21.125C22.1592 1.50928 23.1832 1.71301 24.1386 2.10885C25.0941 2.50469 25.9622 3.08488 26.6935 3.81629C27.4247 4.54771 28.0048 5.41602 28.4006 6.37166C28.7963 7.3273 29 8.35155 29 9.38593V21.6385C29 22.6729 28.7963 23.6971 28.4006 24.6527C28.0048 25.6084 27.4247 26.4767 26.6935 27.2081C25.9622 27.9395 25.0941 28.5197 24.1386 28.9156C23.1832 29.3114 22.1592 29.5151 21.125 29.5151H4.5C3.57174 29.5151 2.6815 29.1463 2.02513 28.4898C1.36875 27.8333 1 26.9429 1 26.0144V26.0144Z" stroke="white" stroke-width="2" stroke-linecap="round" stroke-linejoin="round"/>
    <path d="M8 15.5122H14.125C15.0533 15.5122 15.9435 15.881 16.5999 16.5375C17.2563 17.1941 17.625 18.0845 17.625 19.0129C17.625 19.9414 17.2563 20.8318 16.5999 21.4883C15.9435 22.1448 15.0533 22.5137 14.125 22.5137H8V10.2611C8 9.79688 8.18437 9.35167 8.51256 9.02341C8.84075 8.69516 9.28587 8.51074 9.75 8.51074H12.375C13.3033 8.51074 14.1935 8.87957 14.8499 9.53608C15.5063 10.1926 15.875 11.083 15.875 12.0115C15.875 12.9399 15.5063 13.8304 14.8499 14.4869C14.1935 15.1434 13.3033 15.5122 12.375 15.5122H9.75" stroke="white" stroke-width="2" stroke-linecap="round" stroke-linejoin="round"/>
    <path d="M22 22.5137H22.0175" stroke="white" stroke-width="2" stroke-linecap="round" stroke-linejoin="round"/>
</svg>
