<svg width="30" height="32" viewBox="0 0 30 32" fill="none" xmlns="http://www.w3.org/2000/svg">
<path d="M29.7143 18.2856C29.7166 17.1412 29.4324 16.0144 28.8877 15.008C28.343 14.0015 27.5551 13.1474 26.5958 12.5234C25.6364 11.8995 24.5362 11.5256 23.3953 11.4358C22.2544 11.3459 21.1092 11.5431 20.0641 12.0092C19.0189 12.4754 18.107 13.1957 17.4115 14.1045C16.7161 15.0133 16.2591 16.0818 16.0823 17.2124C15.9055 18.3431 16.0145 19.5 16.3994 20.5778C16.7842 21.6555 17.4327 22.6198 18.2857 23.3828V31.9999L22.8571 29.8365L27.4286 31.9999V23.3828C28.1471 22.742 28.7221 21.9568 29.116 21.0784C29.5099 20.2 29.7138 19.2483 29.7143 18.2856ZM25.1428 28.3885L22.8571 27.3062L20.5714 28.3885V24.7428C22.0485 25.2762 23.6657 25.2762 25.1428 24.7428V28.3885ZM22.8571 22.857C21.953 22.857 21.0691 22.5889 20.3174 22.0866C19.5656 21.5843 18.9797 20.8703 18.6337 20.035C18.2877 19.1997 18.1972 18.2805 18.3735 17.3938C18.5499 16.507 18.9853 15.6925 19.6246 15.0531C20.264 14.4138 21.0785 13.9784 21.9653 13.802C22.8521 13.6256 23.7712 13.7162 24.6065 14.0622C25.4419 14.4082 26.1558 14.9941 26.6581 15.7459C27.1604 16.4976 27.4286 17.3815 27.4286 18.2856C27.427 19.4976 26.9449 20.6594 26.0879 21.5164C25.231 22.3734 24.0691 22.8555 22.8571 22.857Z" fill="white"/>
<path d="M5.71094 13.7144H13.7109V16.0001H5.71094V13.7144Z" fill="white"/>
<path d="M5.71094 6.85693H17.1395V9.14265H5.71094V6.85693Z" fill="white"/>
<path d="M2.28571 32C1.67969 31.9994 1.09866 31.7584 0.670139 31.3299C0.241615 30.9013 0.000605116 30.3203 0 29.7143V2.28571C0.000605116 1.67969 0.241615 1.09866 0.670139 0.670139C1.09866 0.241615 1.67969 0.000605116 2.28571 0H20.5714C21.1775 0.000605116 21.7585 0.241615 22.187 0.670139C22.6155 1.09866 22.8565 1.67969 22.8571 2.28571V6.85714H20.5714V2.28571H2.28571V29.7143H13.7143V32H2.28571Z" fill="white"/>
</svg>
