<svg width="28" height="29" viewBox="0 0 28 29" fill="none" xmlns="http://www.w3.org/2000/svg">
    <path d="M0 0.509277V28.5154H28V0.509277H0ZM8.20283 4.1419C9.35973 4.14508 10.4755 4.57132 11.34 5.34033C12.0004 6.0658 12.352 7.02027 12.32 8.00091C12.3507 8.79886 12.1217 9.58522 11.6672 10.2418C11.2128 10.8983 10.5575 11.3896 9.8 11.6417L12.67 15.8426H9.66L7.14 12.0618H5.11V15.8426H2.52V4.15007C4.39833 4.1454 6.34783 4.16057 8.20283 4.1419ZM14.63 4.15007H19.25C22.96 4.15007 25.48 6.67062 25.48 10.0314C25.48 13.3221 22.96 15.9126 19.25 15.9126H14.63V4.15007ZM19.3772 6.45591C18.669 6.46758 17.9363 6.46057 17.22 6.46057V13.5321H19.25C19.7205 13.5617 20.192 13.4919 20.6338 13.3274C21.0757 13.1629 21.478 12.9073 21.8146 12.5771C22.1513 12.247 22.4148 11.8498 22.588 11.4112C22.7612 10.9726 22.8402 10.5025 22.82 10.0314C22.847 9.56594 22.7774 9.09997 22.6157 8.66274C22.4539 8.22551 22.2035 7.82646 21.8802 7.49068C21.5569 7.15489 21.1676 6.88963 20.7368 6.71155C20.3061 6.53347 19.8432 6.44644 19.3772 6.45591ZM5.03883 6.46057V9.82131H7.7C8.96 9.82131 9.66 9.12115 9.66 8.14094C9.66 7.0207 8.89 6.46057 7.63 6.46057H5.03883ZM2.52 23.2642H13.02V25.0146H2.52V23.2642Z" fill="white"/>
</svg>
