<svg width="32" height="34" viewBox="0 0 32 34" fill="none" xmlns="http://www.w3.org/2000/svg">
<path d="M16.1483 0.58767C16.6919 0.58767 17.2272 0.622944 17.7252 0.705942C18.2157 0.770208 18.6996 0.877127 19.1714 1.02548C19.6445 1.16865 20.1072 1.3471 20.57 1.57119C21.0202 1.78491 21.4829 2.04636 21.9457 2.33062C22.7279 2.82861 23.4977 3.23115 24.282 3.55277C25.8261 4.17076 27.4588 4.53849 29.1187 4.64211C29.9612 4.70229 30.8264 4.73756 31.7269 4.73756V13.0373C31.7269 14.6143 31.5257 16.1083 31.1231 17.5317C30.7365 18.9348 30.187 20.2878 29.486 21.5633C28.7879 22.837 27.962 24.0362 27.021 25.1426C26.0655 26.2741 25.031 27.3363 23.9251 28.3214C22.8047 29.3094 21.6246 30.2275 20.3915 31.0707C19.159 31.9256 17.914 32.7203 16.6691 33.4424L16.1711 33.7391L15.6731 33.4424C14.3933 32.7014 13.1432 31.9102 11.9257 31.0707C10.6857 30.237 9.50503 29.3184 8.3921 28.3214C7.28696 27.3363 6.25312 26.274 5.29836 25.1426C4.35984 24.0316 3.53021 22.833 2.82087 21.5633C2.13185 20.2822 1.58296 18.9305 1.18374 17.5317C0.778646 16.0683 0.578924 14.5557 0.590304 13.0373V4.73756C1.49291 4.73756 2.35816 4.70229 3.20059 4.64211C4.02986 4.58451 4.85377 4.46592 5.66562 4.2873C6.46033 4.10885 7.25503 3.87231 8.03729 3.55277C8.84901 3.22516 9.62726 2.82006 10.3612 2.34307C11.2742 1.74964 12.1996 1.31183 13.1126 1.02341C14.0958 0.721984 15.1199 0.574989 16.1483 0.58767ZM29.6396 6.77723C28.0689 6.70102 26.5128 6.43843 25.0041 5.99498C23.5034 5.54732 22.074 4.8885 20.7588 4.03831C20.0766 3.59052 19.3357 3.23929 18.5573 2.99461C17.7796 2.75959 16.971 2.64346 16.1586 2.65017C15.3403 2.64487 14.5256 2.76095 13.7413 2.99461C12.9617 3.23134 12.2218 3.58312 11.546 4.03831C10.2285 4.89313 8.79542 5.55485 7.29031 6.00328C5.81917 6.43072 4.27956 6.69216 2.66525 6.78761V13.0477C2.66525 14.4234 2.8437 15.7389 3.20059 17.0067C3.56417 18.2635 4.06518 19.4764 4.69455 20.6234C5.33145 21.7823 6.08213 22.8749 6.93549 23.8852C7.80074 24.904 8.72409 25.8522 9.72007 26.7527C10.716 27.6553 11.7597 28.4853 12.8512 29.2551C13.953 30.027 15.0568 30.7263 16.1586 31.3653C17.2868 30.7086 18.3868 30.0045 19.4557 29.2551C20.5543 28.4877 21.6036 27.652 22.5972 26.7527C23.5932 25.8522 24.5186 24.904 25.3838 23.8852C26.2373 22.875 26.988 21.7823 27.6248 20.6234C28.2514 19.4778 28.7449 18.2644 29.0959 17.0067C29.4636 15.7194 29.6467 14.3865 29.6396 13.0477V6.77723Z" fill="white"/>
<path fill-rule="evenodd" clip-rule="evenodd" d="M23.8766 10.3586L22.9637 9.57428L22.1212 9.6469L13.0745 20.3287L9.99318 15.9298L9.1632 15.7887L8.2025 16.4756L8.05933 17.3055L12.0204 22.9618L12.4707 23.2108L13.4189 23.2689L13.9045 23.0573L23.9368 11.199L23.8766 10.3586Z" fill="white"/>
</svg>
