<svg width="19" height="19" viewBox="0 0 19 19" fill="none" xmlns="http://www.w3.org/2000/svg">
  <path d="M8.00001 16.2718C9.77499 16.2714 11.4988 15.6831 12.897 14.6004L17.293 18.9531L18.707 17.553L14.311 13.2003C15.405 11.8158 15.9996 10.1085 16 8.35055C16 3.98298 12.411 0.429321 8.00001 0.429321C3.58901 0.429321 0 3.98298 0 8.35055C0 12.7181 3.58901 16.2718 8.00001 16.2718ZM8.00001 2.40963C11.309 2.40963 14 5.07413 14 8.35055C14 11.627 11.309 14.2915 8.00001 14.2915C4.69101 14.2915 2 11.627 2 8.35055C2 5.07413 4.69101 2.40963 8.00001 2.40963Z" fill="white"/>
</svg>
