<svg width="42" height="44" viewBox="0 0 42 44" fill="none" xmlns="http://www.w3.org/2000/svg">
<path d="M8.12068 21.2414C8.12068 21.0264 8.12068 20.8368 8.12068 20.6471C8.12068 15.9057 8.12068 11.1644 8.12068 6.42299C8.12068 5.07012 8.68601 4.53908 10.1397 4.53908C11.7819 4.53908 13.4375 4.53908 15.0796 4.53908C15.3757 4.53908 15.5507 4.47586 15.6988 4.21035C16.143 3.43908 16.8563 3.04713 17.7851 3.02184C18.2831 3.00919 18.7946 3.02184 19.2926 3.02184C19.8714 3.00919 20.1541 2.75632 20.2079 2.22529C20.3425 0.821838 21.2982 0 22.8058 0C24.3133 0 25.8343 0 27.3418 0C28.7686 0 29.7647 0.85977 29.8858 2.18736C29.9397 2.78161 30.2089 3.02184 30.8549 3.03448C31.3261 3.03448 31.7972 3.03448 32.2683 3.03448C33.2374 3.05977 33.9912 3.45172 34.4354 4.27356C34.57 4.52644 34.7315 4.55172 34.9872 4.55172C36.7236 4.53908 38.4465 4.55172 40.1829 4.55172C41.3539 4.55172 42 5.15862 42 6.24598C42 18.2575 42 30.269 42 42.2805C42 43.4058 41.3674 44 40.1559 44C30.0743 44 20.006 44 9.92435 44C8.72639 44 8.0803 43.4058 8.0803 42.2805C8.0803 40.8391 8.0803 39.4104 8.0803 37.9184C5.11905 37.5644 2.79044 36.2494 1.24251 33.8345C0.25992 32.3172 -0.116964 30.6483 0.031098 28.8782C0.300302 25.7299 2.88466 21.8483 8.12068 21.2414ZM37.1543 39.423C37.1543 29.2954 37.1543 19.2057 37.1543 9.09081C36.4409 9.09081 35.7814 9.09081 35.1084 9.09081C35.0141 9.09081 34.9065 9.10345 34.8123 9.10345C34.5027 10.254 34.0181 10.608 32.7932 10.608C27.6783 10.608 22.5635 10.608 17.4486 10.608C16.1295 10.608 15.6988 10.3046 15.3354 9.12874C14.5547 9.12874 13.774 9.12874 12.9664 9.12874C12.9664 9.33103 12.9664 9.50805 12.9664 9.68506C12.9664 13.6678 12.9663 17.6506 12.9529 21.6333C12.9529 22 13.0606 22.2023 13.4105 22.4046C16.1833 23.9977 17.7043 26.3494 17.7716 29.3966C17.8389 32.6207 16.291 35.0862 13.3702 36.8058C13.2086 36.8943 12.9798 37.0333 12.9664 37.1598C12.926 37.9058 12.9529 38.6644 12.9529 39.4356C21.0559 39.423 29.0917 39.423 37.1543 39.423ZM9.74937 42.4575C19.9926 42.4575 30.1819 42.4575 40.3848 42.4575C40.3848 30.3322 40.3848 18.2195 40.3848 6.09425C38.5003 6.09425 36.6428 6.09425 34.7988 6.09425C34.7988 6.6 34.7988 7.08046 34.7988 7.58621C35.7948 7.58621 36.7505 7.58621 37.7062 7.58621C38.5273 7.58621 38.7965 7.82643 38.7965 8.5977C38.7965 19.0414 38.7965 29.4851 38.7965 39.9287C38.7965 40.7126 38.5407 40.9529 37.7197 40.9529C29.2801 40.9529 20.8271 40.9529 12.3876 40.9529C11.6069 40.9529 11.3377 40.7 11.3377 39.954C11.3377 39.1828 11.3377 38.4241 11.3377 37.6276C10.7723 37.7287 10.2609 37.8172 9.74937 37.9057C9.74937 39.4356 9.74937 40.9276 9.74937 42.4575ZM33.1432 9.09081C33.1432 7.88966 33.1432 6.72644 33.1432 5.56322C33.1432 5.44942 33.1566 5.33563 33.1297 5.23448C33.049 4.8046 32.7663 4.56437 32.2952 4.56437C31.7702 4.55172 31.2453 4.56437 30.7338 4.56437C29.4147 4.53908 28.4052 3.65402 28.2975 2.41494C28.2437 1.75747 27.9745 1.52988 27.2611 1.52988C25.7939 1.52988 24.3402 1.52988 22.8731 1.52988C22.1327 1.52988 21.8905 1.74483 21.8232 2.45287C21.7155 3.65402 20.6925 4.53908 19.4003 4.56437C18.9023 4.57701 18.3908 4.56437 17.8928 4.56437C17.3005 4.57701 16.991 4.85517 16.991 5.41149C16.9775 6.15747 16.991 6.89081 16.991 7.63678C16.991 8.11724 16.991 8.5977 16.991 9.09081C22.402 9.09081 27.7322 9.09081 33.1432 9.09081ZM9.74937 6.08161C9.74937 11.1517 9.74937 16.1839 9.74937 21.254C10.2743 21.3425 10.7993 21.431 11.3511 21.5195C11.3511 21.292 11.3511 21.1149 11.3511 20.9506C11.3511 17.0057 11.3511 13.0483 11.3511 9.10345C11.3511 8.86322 11.3377 8.62299 11.3511 8.3954C11.3781 7.88966 11.6607 7.61149 12.1991 7.58621C12.6164 7.57356 13.0337 7.58621 13.4644 7.58621C14.097 7.58621 14.7296 7.58621 15.3623 7.58621C15.3623 7.05517 15.3623 6.58736 15.3623 6.09425C13.4913 6.08161 11.6473 6.08161 9.74937 6.08161Z" fill="#FE7A3C"/>
<path d="M25.0814 19.7241C27.6523 19.7241 30.2232 19.7241 32.8076 19.7241C32.9556 19.7241 33.1172 19.7114 33.2652 19.7367C33.6959 19.8126 33.9652 20.0655 33.9652 20.4827C33.9652 20.8999 33.6959 21.1528 33.2652 21.2287C33.1172 21.254 32.9691 21.2413 32.8076 21.2413C27.6658 21.2413 22.5105 21.2413 17.3687 21.2413C17.2072 21.2413 17.0322 21.254 16.8707 21.216C16.4669 21.1275 16.2246 20.8747 16.2246 20.4701C16.2246 20.0781 16.4669 19.8252 16.8707 19.7367C17.0322 19.6988 17.2072 19.7241 17.3687 19.7241C19.9262 19.7114 22.4971 19.7241 25.0814 19.7241Z" fill="#FE7A3C"/>
<path d="M26.6559 25.7802C24.6234 25.7802 22.5909 25.7802 20.5449 25.7802C20.3969 25.7802 20.2353 25.7928 20.0873 25.7675C19.6835 25.679 19.4277 25.4388 19.4277 25.0342C19.4277 24.6169 19.6835 24.3641 20.1142 24.2756C20.2757 24.2503 20.4507 24.2629 20.6122 24.2629C24.6503 24.2629 28.6884 24.2629 32.7264 24.2629C32.7937 24.2629 32.861 24.2629 32.9283 24.2629C33.5744 24.2629 33.9378 24.5411 33.9513 25.0089C33.9648 25.4767 33.5879 25.7675 32.9552 25.7802C32.2822 25.7802 31.6092 25.7802 30.9362 25.7802C29.5094 25.7928 28.0826 25.7928 26.6559 25.7802Z" fill="#FE7A3C"/>
<path d="M26.7359 33.3788C28.8223 33.3788 30.9086 33.3788 32.9949 33.3788C33.5737 33.3788 33.9237 33.6443 33.9506 34.0868C33.9775 34.5294 33.6276 34.8708 33.1026 34.8834C32.4969 34.896 31.8912 34.8834 31.2855 34.8834C27.6916 34.8834 24.0843 34.8834 20.4904 34.8708C20.2347 34.8708 19.8847 34.8328 19.7501 34.6811C19.5751 34.4914 19.4674 34.1501 19.4943 33.8845C19.5482 33.5179 19.8847 33.3535 20.2885 33.3535C21.6345 33.3535 22.9805 33.3535 24.3266 33.3535C25.1207 33.3662 25.9283 33.3788 26.7359 33.3788Z" fill="#FE7A3C"/>
<path d="M27.0452 30.3325C25.0934 30.3325 23.1417 30.3325 21.19 30.3325C20.6381 30.3325 20.3016 30.0923 20.2343 29.675C20.167 29.2072 20.5439 28.8279 21.1361 28.8279C22.0649 28.8152 22.9802 28.8279 23.9089 28.8279C26.8971 28.8279 29.8987 28.8279 32.8869 28.8405C33.1426 28.8405 33.4926 28.8785 33.6272 29.0302C33.8022 29.2198 33.9233 29.5612 33.883 29.8141C33.8157 30.1934 33.4522 30.3451 33.0484 30.3451C31.6889 30.3451 30.3295 30.3451 28.9565 30.3451C28.3239 30.3451 27.6778 30.3451 27.0452 30.3325Z" fill="#FE7A3C"/>
<path d="M25.0534 16.677C23.2228 16.677 21.3922 16.677 19.5482 16.677C18.8213 16.677 18.3637 16.108 18.7137 15.6023C18.8617 15.3873 19.2117 15.185 19.4809 15.185C23.1959 15.1597 26.9109 15.1597 30.6394 15.1724C31.1913 15.1724 31.5412 15.5011 31.5278 15.9436C31.5143 16.3862 31.1643 16.6896 30.6125 16.6896C28.755 16.6896 26.9109 16.677 25.0534 16.677Z" fill="#FE7A3C"/>
<path d="M25.1074 4.53919C24.8247 4.53919 24.5286 4.55183 24.2459 4.53919C23.7748 4.5139 23.4518 4.18517 23.4652 3.76792C23.4787 3.37597 23.7883 3.05988 24.2325 3.03459C24.7844 3.0093 25.3497 3.0093 25.9015 3.03459C26.3727 3.04723 26.6957 3.38861 26.6822 3.80585C26.6688 4.19781 26.3592 4.50126 25.915 4.53919C25.6458 4.55183 25.3766 4.53919 25.1074 4.53919Z" fill="#FE7A3C"/>
</svg>
