<svg width="168" height="171" viewBox="0 0 168 171" fill="none" xmlns="http://www.w3.org/2000/svg">
<path d="M166.567 121.386H166.261C164.43 115.81 162.353 110.362 160.04 105.067H162.071C163.677 108.884 165.174 112.75 166.567 116.689V121.392V121.386ZM1.43316 25.125C9.5543 21.7409 17.9231 19.3437 26.4207 17.9674L28.8419 2.34534H48.4583L44.0607 16.5261C49.3379 16.5078 54.6052 16.8926 59.8478 17.6682L65.9649 2.34534H87.5183L77.2506 21.705C90.8735 26.084 103.842 33.1291 115.663 42.5731C118.02 44.448 120.308 46.4206 122.527 48.4665H119.414C106.349 37.0386 91.7074 28.6506 76.208 23.7142L63.6525 47.8985H54.6398V64.3756L32.4045 109.416H25.2892V124.476L2.50046 168.655H1.77411L59.0176 19.7873C53.8435 19.0435 48.6371 18.6968 43.4282 18.7491L1.59128 168.649H1.42822V25.125H1.43316ZM1.43316 165.882L26.0155 20.3248C17.6823 21.7773 9.48272 24.2255 1.53199 27.635H1.42822V165.882H1.43316Z" fill="#042B5A"/>
<path d="M70.7076 86.2332H82.8332V72.2173H70.7076V65.5299H85.4619L84.6565 51.4835H58.3695V102.93H70.7076V86.2332ZM121.987 102.784H135.249L141.292 90.1601L147.489 102.796H161.057L147.973 76.1381L159.757 51.569H146.317L141.253 62.2382L136 51.5324H122.333L134.469 76.2602L121.987 102.777V102.784ZM106.561 103.345C112.198 103.438 117.635 100.765 121.68 95.9108C125.725 91.0568 128.048 84.4184 128.139 77.4511C127.904 70.3629 125.401 63.6802 121.18 58.8725C116.96 54.0648 111.367 51.5256 105.632 51.8133C100.205 52.0958 95.0628 54.8894 91.225 59.6396C87.3871 64.3899 85.1343 70.7497 84.9135 77.4572C84.9566 80.9107 85.5498 84.32 86.6591 87.4901C87.7684 90.6603 89.3721 93.5293 91.3786 95.9333C93.3851 98.3374 95.7552 100.229 98.3534 101.501C100.952 102.773 103.727 103.4 106.521 103.345H106.561ZM102.746 66.1651C102.754 64.9453 103.14 63.7757 103.825 62.8974C104.51 62.0191 105.441 61.499 106.427 61.4443C107.441 61.4697 108.408 61.9725 109.132 62.8499C109.856 63.7273 110.281 64.9131 110.321 66.1651V87.9981C110.261 89.189 109.835 90.3067 109.132 91.1237C108.428 91.9406 107.499 92.3954 106.534 92.3954C105.568 92.3954 104.639 91.9406 103.935 91.1237C103.232 90.3067 102.806 89.189 102.746 87.9981V66.1651ZM73.5191 141.338H86.0697V131.041H73.5191V124.042H88.8121V112.903H63.8344V161.009H88.9998V149.436H73.5191V141.338ZM127.536 112.903L122.723 140.44L118.024 112.903H109.718L105.246 140.721L100.582 112.903H90.6798L99.6678 161.009H108.695L113.118 133.435L117.673 161.003H126.518L135.541 112.903H127.536ZM160.321 134.638C157.741 131.695 154.787 130.913 151.466 129.753C147.543 128.385 145.379 128.232 145.379 125.41C145.417 124.913 145.534 124.429 145.724 123.988C145.914 123.546 146.172 123.155 146.484 122.837C146.796 122.518 147.156 122.279 147.543 122.133C147.93 121.987 148.336 121.936 148.739 121.984H148.763C149.976 121.864 151.184 122.284 152.167 123.169C153.151 124.054 153.845 125.346 154.125 126.809L162.604 123.31C161.84 119.76 160.118 116.64 157.723 114.466C155.328 112.292 152.404 111.196 149.435 111.358C140.581 111.358 135.165 118.088 135.165 127.151C135.165 134.986 138.846 138.84 146.224 141.564C150.631 143.213 152.968 143.085 152.968 146.59C152.968 148.434 151.585 149.888 149.287 149.888C147.825 150.093 146.355 149.599 145.179 148.506C144.002 147.414 143.209 145.806 142.962 144.013L133.663 146.541C135.244 155.665 140.744 161.088 149.169 161.088C151.228 161.155 153.276 160.688 155.181 159.717C157.085 158.746 158.804 157.293 160.227 155.452C162.352 152.557 163.518 148.783 163.488 144.862C163.573 142.974 163.333 141.085 162.784 139.32C162.236 137.554 161.391 135.953 160.306 134.62H160.321V134.638ZM51.7631 137.045L40.1859 113.117H28.9497V161.04H38.8123V133.038L52.0349 160.972H61.3885V113.056H51.7928L51.7681 137.045H51.7631Z" fill="#042B5A"/>
</svg>
