<svg width="171" height="167" viewBox="0 0 171 167" fill="none" xmlns="http://www.w3.org/2000/svg">
<path d="M85.4936 13.1797C82.8492 6.59616 76.4184 -0.512556 64.369 0.458479C49.0279 2.12573 44.2399 16.8195 46.5606 25.5772C40.4534 21.4487 30.0591 19.6288 20.9839 27.391C9.27037 39.1167 15.5363 54.9769 21.9732 58.7817C14.8767 58.1221 3.66401 62.9162 1.18451 75.442C-1.45378 90.9969 10.4185 100.066 21.9732 100.066H150.162C163.537 100.066 170.951 88.5113 170.12 77.6222C168.807 63.4048 155.781 57.945 148.678 59.1176C154.614 55.8075 162.541 40.2709 150.486 28.0567C140.916 18.9631 128.72 22.2732 124.427 26.2367C126.741 18.6394 122.949 2.94409 107.43 0.464587C106.405 0.346392 105.373 0.285227 104.34 0.281372C92.4924 0.281372 87.1609 8.92909 85.4936 13.1797Z" fill="white"/>
<path d="M23.1268 29.8643C16.3601 35.9836 13.8989 49.8468 26.0948 57.9571L74.7688 91.3021L51.1708 37.3028C46.224 24.5633 32.6967 21.7845 23.1268 29.8643Z" fill="#F37021"/>
<path d="M65.0225 3.60999C57.1138 3.76877 45.2354 13.1799 50.5181 27.55L74.9283 85.0426L83.5089 24.5697C85.4937 9.54613 74.1039 2.60841 65.0225 3.60999Z" fill="#CC004C"/>
<path d="M87.3137 22.2612H91.9246C91.9246 22.2612 94.3918 22.2612 94.7277 23.4216C92.9078 24.9056 87.9671 25.0949 88.6206 33.0098L96.3767 85.0426L120.622 27.3912C125.581 14.5174 115.174 3.76878 105.94 3.439C105.504 3.40479 105.066 3.38646 104.627 3.38403C96.34 3.38403 86.8434 9.39957 87.3137 22.2673V22.2612Z" fill="#6460AA"/>
<path d="M119.645 37.7972L96.7185 91.1492L145.374 57.621C156.593 49.6756 154.779 36.9728 148.507 30.6885C145.875 27.7327 141.038 25.4547 135.926 25.4547C129.874 25.4547 123.401 28.6549 119.645 37.7911V37.7972Z" fill="#0089D0"/>
<path d="M139.933 65.2126L94.239 97.0919H150.504C162.047 97.0919 169.461 85.2013 166.169 74.2939C163.958 67.4356 157.424 62.0552 149.838 62.0491C146.644 62.0491 143.261 63.0079 139.933 65.2126Z" fill="#0DB14B"/>
<path d="M21.8149 97.0916H77.2495L31.5375 65.2123C20.9782 58.4334 9.10596 62.403 4.81874 73.6402C1.18499 86.5202 10.2541 97.0916 21.8149 97.0916Z" fill="#FCB711"/>
<path d="M83.2037 140.709H93.4881C95.8515 140.856 100.041 142.92 100.041 147.799C100.041 152.905 95.6928 154.969 93.3354 155.201H83.1976V140.709H83.2037ZM83.0449 117.978H91.5094C94.4042 118.131 97.8242 120.268 97.8242 124.232C97.8242 128.122 95.2347 130.712 91.888 131.176H83.0449V117.978ZM71.4718 108.512V164.655H98.7463C105.22 164.655 112.915 158.175 112.915 149.705C112.915 140.862 107.125 136.513 103.461 134.761C103.461 134.761 110.167 130.87 109.874 122.479C109.568 111.187 99.125 108.518 95.5462 108.518H71.4718V108.512ZM29.644 164.655V132.312L64.9922 166.78V108.512H53.1138V140.013L17.7595 106.234V164.655H29.644ZM114.826 135.976C115.126 153.729 127.896 167 144.312 167C148.202 167 152.306 166.267 156.495 164.655V153.216C153.293 155.177 149.612 156.217 145.857 156.221C135.921 156.221 126.546 148.874 126.937 135.518C127.193 130.605 129.313 125.976 132.865 122.572C136.417 119.169 141.133 117.249 146.052 117.203C149.558 117.203 153.167 118.216 156.495 120.415V109.288C152.858 107.794 148.965 107.021 145.032 107.01C128.653 107.01 115.138 120.806 114.826 135.976Z" fill="black"/>
</svg>
