<svg width="172" height="172" viewBox="0 0 172 172" fill="none" xmlns="http://www.w3.org/2000/svg">
<path d="M86.9679 170.764C133.247 170.764 170.764 133.246 170.764 86.9674C170.764 40.6886 133.247 3.17114 86.9679 3.17114C40.6891 3.17114 3.17163 40.6886 3.17163 86.9674C3.17163 133.246 40.6891 170.764 86.9679 170.764Z" fill="#1EA3FF"/>
<path d="M27.5364 72.6595V55.5616H35.1689V70.3966C35.1689 73.3313 35.5021 76.1855 39.3614 76.1855C43.2153 76.1855 43.5539 73.3367 43.5539 70.3966V55.5616H51.1703V72.5788C51.1703 79.2008 46.9778 82.8075 39.3506 82.8075C31.5569 82.8881 27.531 79.2062 27.531 72.6595H27.5364ZM53.1913 78.9482L56.8785 73.8366C58.2222 75.5136 60.5658 76.938 63.1673 76.938C65.1775 76.938 66.3493 76.0995 66.3493 74.5085C66.3493 72.6648 64.6723 72.0736 61.7375 71.2351C57.8836 70.0633 54.4436 68.0531 54.4436 63.4413C54.4436 58.4103 58.6361 54.9703 64.5056 54.9703C68.6121 54.9703 71.6329 56.2281 73.6431 58.0771L70.2031 63.1887C69.5421 62.4429 68.729 61.8474 67.8186 61.4423C66.9081 61.0371 65.9214 60.8317 64.9249 60.8398C62.9146 60.8398 62.0761 61.6783 62.0761 62.6835C62.0761 64.3605 64.0864 64.7797 66.2686 65.5322C70.6224 66.876 73.9818 68.8916 73.9818 73.8366C73.9818 78.9482 70.2891 82.8075 63.5865 82.8075C58.6415 82.8881 54.8629 80.7918 53.1913 78.9482ZM84.2104 55.5616H92.5954L102.566 82.3022H94.6056L93.3479 78.4483H83.2859L82.0281 82.3022H74.2344C74.315 82.3022 84.2104 55.5616 84.2104 55.5616ZM91.4182 72.4122L89.322 65.9568C88.9059 64.6423 88.5984 63.2958 88.4029 61.931H88.1502C87.9532 63.296 87.644 64.6425 87.2258 65.9568L85.1295 72.4068H91.4182V72.4122ZM34.196 97.922H27.574V91.7192H48.4505V97.922H41.8178V118.46H34.196V97.922ZM48.9504 105.13C48.9504 98.5078 53.6481 91.2086 63.6241 91.2086C73.6001 91.2086 78.2979 98.5885 78.2979 105.13C78.2979 111.671 73.6001 118.965 63.6241 118.965C53.6481 119.046 48.9504 111.752 48.9504 105.13ZM70.4988 105.13C70.4988 100.346 67.3974 97.836 63.6241 97.836C59.9369 97.836 56.8355 100.351 56.8355 105.13C56.8355 109.908 59.9369 112.338 63.6241 112.338C67.3114 112.338 70.4988 109.908 70.4988 105.13ZM81.0606 91.7192H90.9506C100.427 91.7192 105.791 96.7448 105.791 105.13C105.791 113.348 100.255 118.546 90.956 118.546H81.066V91.7192H81.0606ZM88.7738 112.338H90.4507C95.3957 112.338 97.9973 109.994 97.9973 105.135C97.9973 100.265 95.3957 97.922 90.4507 97.922H88.7738V112.338ZM114.687 91.7192H123.072L133.042 118.46H125.082L123.824 114.601H113.762L112.504 118.46H104.711C104.791 118.46 114.687 91.7138 114.687 91.7138V91.7192ZM121.889 108.564L119.798 102.114C119.38 100.798 119.071 99.4501 118.874 98.0832H118.626C118.43 99.4501 118.121 100.798 117.702 102.114L115.606 108.564H121.894H121.889ZM136.729 108.989L126.754 91.7998H135.138L138.74 98.4218C139.492 99.8462 140.589 101.942 140.836 103.367H141.008C141.255 101.942 142.26 99.8462 143.104 98.4218L146.705 91.7998H154.838L144.862 108.989V118.546H136.815V108.989H136.729Z" fill="white"/>
</svg>
